# xmcd
#
# Track frame offsets: 
#        150
#        24305
#        43261
#        57979
#        103925
#        164479
#        181385
#        216739
#        257314
#
# Disc length: 4433 seconds
#
# Revision: 0
# Processed by: cddbd v1.5.2PL0 Copyright (c) Steve Scherf et al.
# Submitted via: ExactAudioCopy v0.95b4
#
DISCID=82114f09
DTITLE=Allman Brothers Band - One Way Out
DYEAR=2003
DGENRE=Blues Rock
TTITLE0=Statesboro Blues
TTITLE1=Don't Keep Me Wondering
TTITLE2=Midnight Rider
TTITLE3=Rockin' Horse
TTITLE4=Desdemona
TTITLE5=Trouble No More
TTITLE6=Wasted Words
TTITLE7=Good Morning Little Schoolgirl
TTITLE8=Instrumental Illness
EXTD=
EXTT0=
EXTT1=
EXTT2=
EXTT3=
EXTT4=
EXTT5=
EXTT6=
EXTT7=
EXTT8=
PLAYORDER=
